# xmcd
#
# Track frame offsets:
#	150
#	17824
#	36044
#
# Disc length: 680 seconds
#
# Revision: 0
# Processed by: cddbd v1.5.2PL0 Copyright (c) Steve Scherf et al.
# Submitted via: audiograbber 1.83.01
#
DISCID=1a02a603
DTITLE=Kasey Chambers - Surrender
DYEAR=2006
DGENRE=Country Rock
TTITLE0=Surrender
TTITLE1=Little Sparrow
TTITLE2=Better Be Home Soon
EXTD=CD-Single
EXTT0=P 2006\nfrom the album "Carnival"
EXTT1=P 2003\nfrom the album "Just because i'm a woman: songs of Dolly Parton"
EXTT2=P 2005\nfrom the album "She will have her way: the songs of Tim and Beil Fi
EXTT2=nn"
PLAYORDER=
